<svg width="657" height="196" viewBox="0 0 657 196" fill="none" xmlns="http://www.w3.org/2000/svg">
<path d="M47 132.659L59.1693 112.842C69.8296 119.919 81.5121 123.531 91.1015 123.531C96.7481 123.531 99.328 121.823 99.328 118.553V118.211C99.328 114.599 94.1682 113.037 84.3841 110.255C66.0328 105.423 51.4296 99.2245 51.4296 80.433V80.0426C51.4296 60.2261 67.2497 49.1465 88.6677 49.1465C102.249 49.1465 116.316 53.1 126.977 60.0309L115.83 80.7259C106.191 75.3569 95.7259 72.0867 88.3756 72.0867C83.4105 72.0867 80.8307 73.9902 80.8307 76.5771V76.9188C80.8307 80.5306 86.1365 82.2878 95.9206 85.2163C114.272 90.3901 128.875 96.784 128.875 114.892V115.234C128.875 135.782 113.59 146.472 90.9068 146.472C75.3301 146.423 59.8995 141.981 47 132.659Z" fill="white"/>
<path d="M137.88 98.1506V97.809C137.88 71.2569 159.493 49 189.381 49C219.074 49 240.54 70.9152 240.54 97.4673V97.809C240.54 124.361 218.928 146.618 189.04 146.618C159.347 146.618 137.88 124.703 137.88 98.1506ZM208.754 98.1506V97.809C208.754 86.4365 200.528 76.7723 188.991 76.7723C177.163 76.7723 169.569 86.2412 169.569 97.4673V97.809C169.569 109.181 177.796 118.846 189.332 118.846C201.209 118.846 208.754 109.377 208.754 98.1506Z" fill="white"/>
<path d="M254.706 51.05H287.319V64.1796C293.307 56.419 301.923 49 315.114 49C334.877 49 346.706 62.1296 346.706 83.3127V144.373H314.092V93.8554C314.092 83.7032 308.786 78.139 301.046 78.139C293.161 78.139 287.319 83.6544 287.319 93.8554V144.373H254.706V51.05Z" fill="white"/>
<path d="M362.135 51.0498H394.748V144.373H362.135V51.0498Z" fill="white"/>
<path d="M409.106 98.1506V97.809C409.106 71.2569 430.719 49 460.607 49C490.3 49 511.767 70.9152 511.767 97.4673V97.809C511.767 124.361 490.154 146.618 460.266 146.618C430.573 146.618 409.106 124.703 409.106 98.1506ZM480.029 98.1506V97.809C480.029 86.4365 471.803 76.7723 460.266 76.7723C448.438 76.7723 440.844 86.2412 440.844 97.4673V97.809C440.844 109.181 449.07 118.846 460.607 118.846C472.484 118.846 480.029 109.377 480.029 98.1506Z" fill="white"/>
<path d="M543.109 97.2719L512.394 51.0498H547.588L561.315 73.99L575.042 51.0498H609.554L578.985 97.0767L610.235 144.324H575.188L560.779 120.359L546.176 144.324H511.859L543.109 97.2719Z" fill="white"/>
</svg>
